<mxfile host="app.diagrams.net" modified="2023-08-11T05:49:52.323Z" agent="Mozilla/5.0 (Windows NT 10.0; Win64; x64) AppleWebKit/537.36 (KHTML, like Gecko) Chrome/115.0.0.0 Safari/537.36" version="21.6.7" etag="07PYFZcj8TZfTaTVtYb2" type="github">
  <diagram name="第 1 页" id="3OngrL8PrvXmw3F6-BjB">
    <mxGraphModel>
      <root>
        <mxCell id="0" />
        <mxCell id="1" parent="0" />
      </root>
    </mxGraphModel>
  </diagram>
</mxfile>
